<svg width="19" height="15" viewBox="0 0 19 15" fill="none" xmlns="http://www.w3.org/2000/svg">
<path d="M1.49993 8.25032C1.30102 8.25032 1.11025 8.1713 0.969597 8.03065C0.828945 7.88999 0.749927 7.69923 0.749927 7.50032C0.749927 7.3014 0.828945 7.11064 0.969597 6.96999C1.11025 6.82933 1.30102 6.75032 1.49993 6.75032L10.7499 6.75032L10.7499 1.50032C10.7501 1.35208 10.7941 1.2072 10.8765 1.08398C10.959 0.960769 11.076 0.864741 11.213 0.80803C11.35 0.751319 11.5007 0.736467 11.6461 0.765352C11.7915 0.794236 11.925 0.86556 12.0299 0.970317L18.0299 6.97032C18.1704 7.11094 18.2493 7.30157 18.2493 7.50032C18.2493 7.69907 18.1704 7.88969 18.0299 8.03032L12.0299 14.0303C11.925 14.1351 11.7915 14.2064 11.6461 14.2353C11.5007 14.2642 11.35 14.2493 11.213 14.1926C11.076 14.1359 10.959 14.0399 10.8765 13.9166C10.7941 13.7934 10.7501 13.6486 10.7499 13.5003L10.7499 8.25032L1.49993 8.25032Z" fill="url(#paint0_linear_2_602)"/>
<defs>
<linearGradient id="paint0_linear_2_602" x1="18.2493" y1="7.50032" x2="0.749927" y2="7.50032" gradientUnits="userSpaceOnUse">
<stop stop-color="#45F175"/>
<stop offset="1" stop-color="#00C3CE"/>
</linearGradient>
</defs>
</svg>
