<svg width="30" height="30" viewBox="0 0 30 30" fill="none" xmlns="http://www.w3.org/2000/svg">
<path d="M22.9688 0H7.03125C3.148 0 0 3.148 0 7.03125V22.9688C0 26.852 3.148 30 7.03125 30H22.9688C26.852 30 30 26.852 30 22.9688V7.03125C30 3.148 26.852 0 22.9688 0Z" fill="#5865F2"/>
<mask id="mask0_1982_344" style="mask-type:luminance" maskUnits="userSpaceOnUse" x="3" y="5" width="24" height="20">
<path d="M3.28125 5.97656H26.7188V24.1324H3.28125V5.97656Z" fill="white"/>
</mask>
<g mask="url(#mask0_1982_344)">
<path d="M23.122 7.59419C21.6024 6.89677 19.9989 6.39938 18.3514 6.11446C18.3364 6.11173 18.321 6.11377 18.3072 6.12028C18.2935 6.1268 18.2821 6.13747 18.2747 6.15079C18.0687 6.51712 17.8404 6.99524 17.6807 7.37095C15.8792 7.10118 14.087 7.10118 12.3225 7.37095C12.1627 6.98681 11.9262 6.51712 11.7193 6.15079C11.7116 6.13769 11.7002 6.1272 11.6865 6.12072C11.6728 6.11423 11.6575 6.11205 11.6425 6.11446C9.99487 6.39873 8.39122 6.89615 6.87192 7.59419C6.85899 7.59982 6.84804 7.60921 6.84051 7.62114C3.80208 12.1605 2.96981 16.5883 3.37809 20.9613C3.38058 20.9829 3.39154 21.0026 3.40856 21.0161C5.41317 22.4884 7.35508 23.3822 9.26091 23.9745C9.27573 23.9789 9.29154 23.9787 9.30624 23.9739C9.32093 23.9691 9.33381 23.9599 9.34317 23.9476C9.79399 23.3319 10.1958 22.6828 10.5405 22.0002C10.5452 21.9908 10.5479 21.9806 10.5484 21.9701C10.5489 21.9596 10.5472 21.9492 10.5433 21.9394C10.5395 21.9296 10.5336 21.9208 10.5261 21.9135C10.5186 21.9062 10.5097 21.9005 10.4998 21.8969C9.86231 21.655 9.2554 21.3603 8.67157 21.0255C8.66094 21.0193 8.65201 21.0105 8.64557 20.9999C8.63913 20.9894 8.63538 20.9775 8.63465 20.9651C8.63392 20.9528 8.63623 20.9405 8.64139 20.9293C8.64654 20.9181 8.65437 20.9083 8.66419 20.9008C8.78736 20.8088 8.9084 20.7139 9.02723 20.6163C9.03765 20.6077 9.05025 20.6022 9.06362 20.6004C9.07699 20.5986 9.09061 20.6005 9.10294 20.606C12.9387 22.3572 17.0913 22.3572 20.8817 20.606C20.8941 20.6002 20.9078 20.598 20.9214 20.5996C20.935 20.6013 20.9478 20.6067 20.9584 20.6154C21.0774 20.7135 21.1988 20.8087 21.3224 20.9008C21.3323 20.9082 21.3402 20.9179 21.3454 20.9291C21.3506 20.9403 21.353 20.9526 21.3524 20.9649C21.3518 20.9772 21.3481 20.9892 21.3418 20.9997C21.3354 21.0103 21.3266 21.0192 21.316 21.0255C20.7318 21.3666 20.1199 21.6578 19.4868 21.896C19.477 21.8998 19.4681 21.9056 19.4607 21.913C19.4533 21.9205 19.4475 21.9294 19.4437 21.9392C19.44 21.9491 19.4384 21.9596 19.4389 21.9701C19.4395 21.9805 19.4423 21.9908 19.4471 22.0002C19.7977 22.6774 20.1975 23.328 20.6433 23.9466C20.6525 23.9593 20.6653 23.9687 20.68 23.9737C20.6947 23.9787 20.7107 23.979 20.7256 23.9745C22.6407 23.3822 24.5826 22.4884 26.5873 21.0161C26.5959 21.0098 26.603 21.0017 26.6083 20.9924C26.6135 20.9831 26.6168 20.9729 26.6178 20.9622C27.1065 15.9067 25.7992 11.515 23.1524 7.62208C23.146 7.60939 23.1352 7.59948 23.122 7.59419ZM11.1133 18.2987C9.95841 18.2987 9.00684 17.2385 9.00684 15.9364C9.00684 14.6343 9.94001 13.5741 11.1133 13.5741C12.2957 13.5741 13.238 14.6437 13.2195 15.9364C13.2195 17.2385 12.2865 18.2987 11.1133 18.2987ZM18.9011 18.2987C17.7462 18.2987 16.7948 17.2385 16.7948 15.9364C16.7948 14.6343 17.7278 13.5741 18.9011 13.5741C20.0835 13.5741 21.0258 14.6437 21.0074 15.9364C21.0074 17.2385 20.0835 18.2987 18.9011 18.2987Z" fill="white"/>
</g>
</svg>
