<svg width="24" height="18" viewBox="0 0 24 18" fill="none" xmlns="http://www.w3.org/2000/svg">
<path d="M20.122 1.59419C18.6024 0.89677 16.9989 0.39938 15.3514 0.114463C15.3364 0.11173 15.321 0.113766 15.3072 0.120284C15.2935 0.126802 15.2821 0.137473 15.2747 0.150791C15.0687 0.517119 14.8404 0.995244 14.6807 1.37095C12.8792 1.10118 11.087 1.10118 9.32255 1.37095C9.1627 0.986807 8.92622 0.517119 8.71926 0.150791C8.71164 0.137688 8.70022 0.127202 8.68652 0.120717C8.67282 0.114232 8.65747 0.112051 8.64251 0.114463C6.99487 0.398735 5.39122 0.896151 3.87192 1.59419C3.85899 1.59982 3.84804 1.60921 3.84051 1.62114C0.802077 6.16052 -0.0301886 10.5883 0.378093 14.9613C0.380581 14.9829 0.391539 15.0026 0.408561 15.0161C2.41317 16.4884 4.35508 17.3822 6.26091 17.9745C6.27573 17.9789 6.29154 17.9787 6.30624 17.9739C6.32093 17.9691 6.33381 17.9599 6.34317 17.9476C6.79399 17.3319 7.19583 16.6828 7.54048 16.0002C7.54522 15.9908 7.54793 15.9806 7.54843 15.9701C7.54892 15.9596 7.54719 15.9492 7.54335 15.9394C7.53951 15.9296 7.53364 15.9208 7.52613 15.9135C7.51863 15.9062 7.50966 15.9005 7.49981 15.8969C6.86231 15.655 6.2554 15.3603 5.67157 15.0255C5.66094 15.0193 5.65201 15.0105 5.64557 14.9999C5.63913 14.9894 5.63538 14.9775 5.63465 14.9651C5.63392 14.9528 5.63623 14.9405 5.64139 14.9293C5.64654 14.9181 5.65437 14.9083 5.66419 14.9008C5.78736 14.8088 5.9084 14.7139 6.02723 14.6163C6.03765 14.6077 6.05025 14.6022 6.06362 14.6004C6.07699 14.5986 6.09061 14.6005 6.10294 14.606C9.93872 16.3572 14.0913 16.3572 17.8817 14.606C17.8941 14.6002 17.9078 14.598 17.9214 14.5996C17.935 14.6013 17.9478 14.6067 17.9584 14.6154C18.0774 14.7135 18.1988 14.8087 18.3224 14.9008C18.3323 14.9082 18.3402 14.9179 18.3454 14.9291C18.3506 14.9403 18.353 14.9526 18.3524 14.9649C18.3518 14.9772 18.3481 14.9892 18.3418 14.9997C18.3354 15.0103 18.3266 15.0192 18.316 15.0255C17.7318 15.3666 17.1199 15.6578 16.4868 15.896C16.477 15.8998 16.4681 15.9056 16.4607 15.913C16.4533 15.9205 16.4475 15.9294 16.4437 15.9392C16.44 15.9491 16.4384 15.9596 16.4389 15.9701C16.4395 15.9805 16.4423 15.9908 16.4471 16.0002C16.7977 16.6774 17.1975 17.328 17.6433 17.9466C17.6525 17.9593 17.6653 17.9687 17.68 17.9737C17.6947 17.9787 17.7107 17.979 17.7256 17.9745C19.6407 17.3822 21.5826 16.4884 23.5873 15.0161C23.5959 15.0098 23.603 15.0017 23.6083 14.9924C23.6135 14.9831 23.6168 14.9729 23.6178 14.9622C24.1065 9.90665 22.7992 5.51505 20.1524 1.62208C20.146 1.60939 20.1352 1.59948 20.122 1.59419ZM8.11329 12.2987C6.95841 12.2987 6.00684 11.2385 6.00684 9.93641C6.00684 8.63435 6.94001 7.57415 8.11329 7.57415C9.29571 7.57415 10.238 8.64372 10.2195 9.93641C10.2195 11.2385 9.28645 12.2987 8.11329 12.2987ZM15.9011 12.2987C14.7462 12.2987 13.7948 11.2385 13.7948 9.93641C13.7948 8.63435 14.7278 7.57415 15.9011 7.57415C17.0835 7.57415 18.0258 8.64372 18.0074 9.93641C18.0074 11.2385 17.0835 12.2987 15.9011 12.2987Z" fill="white"/>
</svg>
