<svg width="612" height="412" viewBox="0 0 612 412" fill="none" xmlns="http://www.w3.org/2000/svg">
<path d="M517.066 39.1109C478.361 21.0681 436.455 7.97257 392.803 0.40625C392.036 0.417183 391.304 0.730984 390.766 1.27929C385.528 10.8827 379.417 23.3962 375.343 32.9996C329.042 26.0197 281.957 26.0197 235.657 32.9996C231.583 23.1052 225.471 10.8827 219.942 1.27929C219.651 0.697268 218.778 0.40625 217.905 0.40625C174.253 7.97257 132.638 21.0681 93.6428 39.1109C93.3517 39.1109 93.0607 39.4019 92.7697 39.6929C13.6144 158.135 -8.21154 273.376 2.55592 387.453C2.55592 388.035 2.84693 388.617 3.42895 388.908C55.8112 427.321 106.156 450.602 155.919 466.026C156.792 466.317 157.665 466.026 157.956 465.444C169.597 449.438 180.073 432.559 189.095 414.808C189.677 413.644 189.095 412.48 187.931 412.189C171.343 405.786 155.628 398.22 140.205 389.49C139.041 388.908 139.041 387.162 139.914 386.289C143.115 383.96 146.316 381.341 149.517 379.013C150.099 378.431 150.972 378.431 151.554 378.722C251.662 424.411 359.628 424.411 458.572 378.722C459.154 378.431 460.027 378.431 460.609 379.013C463.81 381.632 467.011 383.96 470.213 386.58C471.377 387.453 471.377 389.199 469.922 389.781C454.789 398.802 438.783 406.077 422.196 412.48C421.032 412.771 420.741 414.226 421.032 415.099C430.344 432.85 440.82 449.729 452.17 465.735C453.043 466.026 453.916 466.317 454.789 466.026C504.843 450.602 555.188 427.321 607.57 388.908C608.152 388.617 608.443 388.035 608.443 387.453C621.248 255.624 587.2 141.256 518.23 39.6929C517.939 39.4019 517.648 39.1109 517.066 39.1109ZM204.227 317.901C174.253 317.901 149.226 290.254 149.226 256.206C149.226 222.158 173.671 194.511 204.227 194.511C235.075 194.511 259.52 222.449 259.229 256.206C259.229 290.254 234.784 317.901 204.227 317.901ZM407.063 317.901C377.089 317.901 352.062 290.254 352.062 256.206C352.062 222.158 376.507 194.511 407.063 194.511C437.91 194.511 462.355 222.449 462.064 256.206C462.064 290.254 437.91 317.901 407.063 317.901Z" fill="white"/>
</svg>
