<svg width="24" height="25" viewBox="0 0 24 25" fill="none" xmlns="http://www.w3.org/2000/svg">
<path d="M2 6.5C2 5.96957 2.21071 5.46086 2.58579 5.08579C2.96086 4.71071 3.46957 4.5 4 4.5H20C20.5304 4.5 21.0391 4.71071 21.4142 5.08579C21.7893 5.46086 22 5.96957 22 6.5V17.5C22 18.0304 21.7893 18.5391 21.4142 18.9142C21.0391 19.2893 20.5304 19.5 20 19.5H15.414L12.707 22.207C12.5195 22.3945 12.2652 22.4998 12 22.4998C11.7348 22.4998 11.4805 22.3945 11.293 22.207L8.586 19.5H4C3.46957 19.5 2.96086 19.2893 2.58579 18.9142C2.21071 18.5391 2 18.0304 2 17.5V6.5ZM20 6.5H4V17.5H9C9.26519 17.5001 9.51951 17.6054 9.707 17.793L12 20.086L14.293 17.793C14.4805 17.6054 14.7348 17.5001 15 17.5H20V6.5ZM6 10C6 9.73478 6.10536 9.48043 6.29289 9.29289C6.48043 9.10536 6.73478 9 7 9H17C17.2652 9 17.5196 9.10536 17.7071 9.29289C17.8946 9.48043 18 9.73478 18 10C18 10.2652 17.8946 10.5196 17.7071 10.7071C17.5196 10.8946 17.2652 11 17 11H7C6.73478 11 6.48043 10.8946 6.29289 10.7071C6.10536 10.5196 6 10.2652 6 10ZM6 14C6 13.7348 6.10536 13.4804 6.29289 13.2929C6.48043 13.1054 6.73478 13 7 13H13C13.2652 13 13.5196 13.1054 13.7071 13.2929C13.8946 13.4804 14 13.7348 14 14C14 14.2652 13.8946 14.5196 13.7071 14.7071C13.5196 14.8946 13.2652 15 13 15H7C6.73478 15 6.48043 14.8946 6.29289 14.7071C6.10536 14.5196 6 14.2652 6 14Z" fill="url(#paint0_linear_1954_1532)"/>
<defs>
<linearGradient id="paint0_linear_1954_1532" x1="2" y1="7.17515" x2="22.7125" y2="12.3639" gradientUnits="userSpaceOnUse">
<stop offset="0.371874" stop-color="#45F175"/>
<stop offset="1" stop-color="#00C3CE"/>
</linearGradient>
</defs>
</svg>
