<svg width="32" height="26" viewBox="0 0 32 26" fill="none" xmlns="http://www.w3.org/2000/svg">
<path d="M30.7925 3.08784C31.4345 4.74381 30.536 5.87779 28.7973 6.99677C27.3947 7.89676 25.608 8.87474 23.7149 10.5442C21.8577 12.1807 20.0471 14.1531 18.4375 16.0941C17.0603 17.7604 15.7492 19.4802 14.5071 21.2495C13.8861 22.136 13.0175 23.459 13.0175 23.459C12.7058 23.9405 12.2765 24.3346 11.7702 24.6041C11.2639 24.8736 10.6973 25.0097 10.1238 24.9995C9.55057 24.9961 8.98778 24.8461 8.48889 24.5639C7.99001 24.2817 7.57163 23.8765 7.27352 23.387C5.7749 20.8715 4.6198 19.877 4.08876 19.5216C2.66814 18.5646 1 18.4266 1 16.2006C1 14.4321 2.49262 12.9997 4.33328 12.9997C5.63389 13.0477 6.84149 13.5592 7.91258 14.2791C8.59663 14.7381 9.32119 15.3471 10.0743 16.1466C11.0835 14.7696 12.133 13.4225 13.2215 12.1072C14.9572 10.0147 17.0063 7.76926 19.204 5.83129C21.3642 3.92632 23.8619 2.14285 26.5096 1.20087C28.2348 0.585881 30.1519 1.43037 30.7925 3.08784Z" stroke="url(#paint0_linear_897_1296)" stroke-width="1.5" stroke-linecap="round" stroke-linejoin="round"/>
<defs>
<linearGradient id="paint0_linear_897_1296" x1="16" y1="1" x2="16" y2="25" gradientUnits="userSpaceOnUse">
<stop stop-color="#45F175"/>
<stop offset="1" stop-color="#00C3CE"/>
</linearGradient>
</defs>
</svg>
