<svg width="52" height="51" viewBox="0 0 52 51" fill="none" xmlns="http://www.w3.org/2000/svg">
<mask id="mask0_635_2445" style="mask-type:luminance" maskUnits="userSpaceOnUse" x="0" y="-1" width="52" height="53">
<path d="M0 -0.0078125H51.016V51.0082H0V-0.0078125Z" fill="white"/>
</mask>
<g mask="url(#mask0_635_2445)">
<mask id="mask1_635_2445" style="mask-type:luminance" maskUnits="userSpaceOnUse" x="0" y="-1" width="52" height="53">
<path d="M25.508 -0.0078125C11.4201 -0.0078125 0 11.4123 0 25.5002C0 39.5877 11.4201 51.0082 25.508 51.0082C39.5955 51.0082 51.016 39.5877 51.016 25.5002C51.016 11.4123 39.5955 -0.0078125 25.508 -0.0078125Z" fill="white"/>
</mask>
<g mask="url(#mask1_635_2445)">
<path d="M0 -0.0078125H51.016V51.0082H0V-0.0078125Z" fill="#04110D"/>
</g>
</g>
<mask id="mask2_635_2445" style="mask-type:luminance" maskUnits="userSpaceOnUse" x="11" y="7" width="29" height="30">
<path d="M11.5996 7.67188H39.4396V36.8719H11.5996V7.67188Z" fill="white"/>
</mask>
<g mask="url(#mask2_635_2445)">
<path fill-rule="evenodd" clip-rule="evenodd" d="M33.2259 36.8791H17.7845C14.3841 36.8791 11.625 34.1067 11.625 30.7113V20.6539C11.625 17.2371 14.3841 14.4646 17.7845 14.4646H24.8421L24.8637 12.1008C23.944 11.8214 23.2594 10.9618 23.2594 9.93029C23.2594 8.68396 24.286 7.67383 25.5267 7.67383C26.767 7.67383 27.7936 8.68396 27.7936 9.93029C27.7936 10.9618 27.0877 11.8428 26.1467 12.1222L26.1254 14.4646H33.2259C36.605 14.4646 39.3637 17.2371 39.3637 20.6539V30.7327C39.3637 34.1281 36.605 36.8791 33.2259 36.8791ZM19.7091 27.1225C17.8914 27.1225 16.4586 25.6827 16.4586 23.8773C16.4586 22.0508 17.8914 20.611 19.7091 20.611C21.5272 20.611 22.9387 22.0508 22.9387 23.8773C22.9387 25.6827 21.5272 27.1225 19.7091 27.1225ZM19.7091 21.9002C18.5973 21.9002 17.7415 22.7601 17.7415 23.8773C17.7415 24.9734 18.5973 25.833 19.7091 25.833C20.8 25.833 21.6767 24.9734 21.6767 23.8773C21.6767 22.7601 20.8 21.9002 19.7091 21.9002ZM31.3226 26.9937C29.5045 26.9937 28.0504 25.5322 28.0504 23.7271C28.0504 21.922 29.5045 20.4605 31.3226 20.4605C33.0973 20.4605 34.5518 21.922 34.5518 23.7271C34.5518 25.5322 33.0973 26.9937 31.3226 26.9937ZM31.3226 21.75C30.2104 21.75 29.3333 22.6523 29.3333 23.7271C29.3333 24.8228 30.2104 25.7256 31.3226 25.7256C32.4131 25.7256 33.2685 24.8228 33.2685 23.7271C33.2685 22.6095 32.3918 21.75 31.3226 21.75ZM25.2699 30.9046C24.0509 30.9046 22.9813 30.3245 22.3827 29.8085C22.1046 29.5723 22.0833 29.1424 22.3184 28.9062C22.5538 28.6482 22.9387 28.6054 23.2168 28.863C23.4092 29.035 25.2699 30.5179 27.0451 28.8848C27.3018 28.6482 27.6867 28.6482 27.9648 28.9062C28.1998 29.1855 28.1998 29.5723 27.9431 29.8303C27.0451 30.6039 26.1254 30.9046 25.2699 30.9046Z" fill="#45F175"/>
</g>
<mask id="mask3_635_2445" style="mask-type:luminance" maskUnits="userSpaceOnUse" x="8" y="21" width="2" height="9">
<path d="M8 21.0322H9.95667V29.9386H8V21.0322Z" fill="white"/>
</mask>
<g mask="url(#mask3_635_2445)">
<path fill-rule="evenodd" clip-rule="evenodd" d="M9.88905 29.8581H9.7318C8.78716 29.8581 8 28.75 8 27.3788V23.5472C8 22.1759 8.78716 21.0488 9.7318 21.0488H9.91541C9.90234 21.2556 9.88905 21.4808 9.88905 21.7062V29.8581Z" fill="#45F175"/>
</g>
<mask id="mask4_635_2445" style="mask-type:luminance" maskUnits="userSpaceOnUse" x="41" y="21" width="3" height="10">
<path d="M41.04 21.0322H43.0034V30.0458H41.04V21.0322Z" fill="white"/>
</mask>
<g mask="url(#mask4_635_2445)">
<path fill-rule="evenodd" clip-rule="evenodd" d="M41.2337 29.965H41.076V21.7921C41.076 21.5473 41.0629 21.3212 41.0498 21.1143H41.2337C42.2059 21.1143 42.9941 22.2252 42.9941 23.6187V27.4793C42.9941 28.8728 42.2059 29.965 41.2337 29.965Z" fill="#45F175"/>
</g>
</svg>
