<svg width="24" height="25" viewBox="0 0 24 25" fill="none" xmlns="http://www.w3.org/2000/svg">
<path d="M17.7505 11.698C17.7503 10.3564 17.2172 9.06973 16.2685 8.12104C15.3198 7.17235 14.0332 6.63927 12.6915 6.639M21.2185 11.344C21.2185 10.281 21.0092 9.2284 20.6023 8.24633C20.1955 7.26425 19.5992 6.37193 18.8475 5.62032C18.0958 4.86871 17.2034 4.27253 16.2213 3.86583C15.2392 3.45913 14.1866 3.24987 13.1235 3.25M12.5305 20.717C12.2305 20.58 11.9315 20.443 11.6325 20.28C10.1659 19.4514 8.81854 18.4273 7.62755 17.236C6.08423 15.7826 4.8162 14.0623 3.88455 12.158C3.38616 11.1351 3.04949 10.0411 2.88655 8.915C2.66673 7.77714 2.79281 6.59953 3.24855 5.534C3.5297 5.07598 3.86922 4.65647 4.25855 4.286C4.41654 4.10924 4.60861 3.96621 4.82324 3.86552C5.03786 3.76482 5.27062 3.70852 5.50755 3.7C6.00055 3.774 6.44755 4.032 6.75555 4.423C7.42955 5.172 8.15255 5.846 8.86355 6.557C9.14355 6.797 9.31855 7.137 9.35055 7.505C9.33855 7.815 9.21955 8.11 9.01355 8.341C8.77655 8.641 8.48955 8.915 8.21555 9.201C8.04987 9.36059 7.92311 9.55614 7.84508 9.77255C7.76705 9.98895 7.73984 10.2204 7.76555 10.449C7.93755 10.984 8.23255 11.472 8.62655 11.872C9.09925 12.5169 9.59456 13.145 10.1115 13.755C11.0758 14.8673 12.218 15.8118 13.4915 16.55C13.6679 16.6832 13.8764 16.7672 14.0958 16.7936C14.3152 16.8199 14.5377 16.7876 14.7405 16.7C15.1635 16.463 15.5405 16.15 15.8505 15.777C16.1191 15.4503 16.5036 15.24 16.9235 15.19C17.2975 15.21 17.6495 15.37 17.9095 15.64C18.2455 15.926 18.5325 16.263 18.8445 16.575C19.1565 16.887 19.4065 17.112 19.6685 17.398C19.9825 17.6753 20.2775 17.9707 20.5535 18.284C20.7675 18.561 20.8705 18.909 20.8405 19.257C20.7291 19.6737 20.489 20.0446 20.1545 20.317C19.6835 20.8068 19.1112 21.1878 18.4777 21.4336C17.8442 21.6794 17.1647 21.784 16.4865 21.74C15.1135 21.6638 13.7683 21.3161 12.5305 20.717Z" stroke="url(#paint0_linear_1954_1528)" stroke-width="1.5" stroke-miterlimit="10" stroke-linecap="round"/>
<defs>
<linearGradient id="paint0_linear_1954_1528" x1="2.78125" y1="5.99946" x2="22.0984" y2="10.34" gradientUnits="userSpaceOnUse">
<stop offset="0.371874" stop-color="#45F175"/>
<stop offset="1" stop-color="#00C3CE"/>
</linearGradient>
</defs>
</svg>
