<svg width="22" height="18" viewBox="0 0 22 18" fill="none" xmlns="http://www.w3.org/2000/svg">
<path d="M0.5 4.03125C0.5 3.13614 0.855579 2.2777 1.48851 1.64476C2.12145 1.01183 2.97989 0.65625 3.875 0.65625H18.125C19.0201 0.65625 19.8785 1.01183 20.5115 1.64476C21.1444 2.2777 21.5 3.13614 21.5 4.03125V13.7812C21.5 14.6764 21.1444 15.5348 20.5115 16.1677C19.8785 16.8007 19.0201 17.1562 18.125 17.1562H3.875C2.97989 17.1562 2.12145 16.8007 1.48851 16.1677C0.855579 15.5348 0.5 14.6764 0.5 13.7812V4.03125ZM3.875 2.15625C3.37772 2.15625 2.90081 2.35379 2.54917 2.70542C2.19754 3.05706 2 3.53397 2 4.03125V5.15625H20V4.03125C20 3.53397 19.8025 3.05706 19.4508 2.70542C19.0992 2.35379 18.6223 2.15625 18.125 2.15625H3.875ZM2 13.7812C2 14.2785 2.19754 14.7554 2.54917 15.1071C2.90081 15.4587 3.37772 15.6562 3.875 15.6562H18.125C18.6223 15.6562 19.0992 15.4587 19.4508 15.1071C19.8025 14.7554 20 14.2785 20 13.7812V6.65625H2V13.7812ZM14.75 11.1562H17C17.1989 11.1562 17.3897 11.2353 17.5303 11.3759C17.671 11.5166 17.75 11.7073 17.75 11.9062C17.75 12.1052 17.671 12.2959 17.5303 12.4366C17.3897 12.5772 17.1989 12.6562 17 12.6562H14.75C14.5511 12.6562 14.3603 12.5772 14.2197 12.4366C14.079 12.2959 14 12.1052 14 11.9062C14 11.7073 14.079 11.5166 14.2197 11.3759C14.3603 11.2353 14.5511 11.1562 14.75 11.1562Z" fill="white"/>
</svg>
