<svg width="24" height="24" viewBox="0 0 24 24" fill="none" xmlns="http://www.w3.org/2000/svg">
<path d="M18.9719 0.8606L11.9999 7.83297C9.67603 5.50985 7.3514 3.18447 5.02715 0.8606C2.3384 -1.82815 -1.82935 2.3411 0.857152 5.0306C3.18178 7.35297 5.50715 9.67872 7.82915 12.0026C5.50609 14.3275 3.18209 16.6515 0.857152 18.9746C-1.82935 21.6626 2.33878 25.8307 5.02715 23.1446C7.3514 20.8196 9.67553 18.4953 11.9995 16.1718L18.9715 23.1446C21.6603 25.8326 25.8292 21.663 23.1415 18.9746C20.8173 16.6501 18.4927 14.3258 16.1677 12.0018C18.4922 9.6771 20.8168 7.3526 23.1415 5.02835C25.8295 2.3411 21.6607 -1.82815 18.9715 0.8621" fill="#EC1C24"/>
</svg>
