<svg width="33" height="32" viewBox="0 0 33 32" fill="none" xmlns="http://www.w3.org/2000/svg">
<g clip-path="url(#clip0_2_622)">
<path d="M0.817164 7.28418C0.695729 6.44823 0.747933 5.59769 0.968837 4.78532L4.74196 8.55858L4.91692 8.73354L5.09187 8.55858L5.9398 7.71061L8.21162 5.43871L9.05955 4.59074L9.2345 4.41578L9.05955 4.24084L5.28642 0.467547C6.09876 0.246631 6.94927 0.194422 7.78519 0.315862C8.75426 0.456647 9.67573 0.826739 10.473 1.39537C11.2703 1.964 11.9203 2.71475 12.369 3.58518C12.8174 4.45501 13.0518 5.41926 13.0528 6.39785C13.0446 6.91678 12.9672 7.43228 12.8226 7.93072L12.7819 8.07104L12.8852 8.17445L31.8593 27.1813C32.1112 27.4347 32.2526 27.7774 32.2526 28.1349C32.2526 28.492 32.1114 28.8346 31.8597 29.088C31.8595 29.0881 31.8593 29.0883 31.8593 29.0883L29.5885 31.3593C29.3351 31.6112 28.9924 31.7525 28.6351 31.7525C28.2778 31.7525 27.9349 31.6112 27.6815 31.3593L8.67544 12.3844L8.57203 12.2811L8.43169 12.3218C7.93328 12.4664 7.4178 12.5438 6.89891 12.552C5.92035 12.551 4.95615 12.3166 4.08636 11.8682C3.21596 11.4194 2.46524 10.7694 1.89663 9.9721C1.32802 9.17481 0.957942 8.25331 0.817164 7.28418ZM23.0745 6.57466L23.1469 6.5022V6.39972V3.35275L29.2502 0.30102L32.1976 3.24869L29.1461 9.35216H26.0992H25.9967L25.9243 9.42464L22.6275 12.7215L19.7777 9.87157L23.0745 6.57466ZM1.14053 29.0881C0.899346 28.8455 0.759516 28.5207 0.748169 28.1799C0.759348 28.1616 0.776364 28.1364 0.80058 28.1029C0.860778 28.0198 0.952278 27.9051 1.07325 27.7611C1.31436 27.4741 1.66117 27.0842 2.08092 26.6243C2.91979 25.7052 4.0424 24.5153 5.17553 23.3278C7.13408 21.2753 9.11992 19.2348 9.71824 18.6228L13.8941 22.799L5.31844 31.3593C5.31841 31.3593 5.31847 31.3593 5.31844 31.3593C5.06504 31.6112 4.72222 31.7525 4.36495 31.7525C4.00766 31.7525 3.66488 31.6112 3.41149 31.3593L1.14071 29.0883C1.14065 29.0883 1.14059 29.0883 1.14053 29.0881Z" fill="white" fill-opacity="0.04"/>
<path d="M5.31844 31.3593L13.8941 22.799L9.71824 18.6228C9.11992 19.2348 7.13408 21.2753 5.17553 23.3278C4.0424 24.5153 2.91979 25.7052 2.08092 26.6243C1.66117 27.0842 1.31436 27.4741 1.07325 27.7611C0.952278 27.9051 0.860778 28.0198 0.80058 28.1029C0.776364 28.1364 0.759348 28.1616 0.748169 28.1799C0.759516 28.5207 0.899346 28.8455 1.14053 29.0881C1.14059 29.0883 1.14065 29.0883 1.14071 29.0883L3.41149 31.3593C3.66488 31.6112 4.00766 31.7525 4.36495 31.7525C4.72222 31.7525 5.06504 31.6112 5.31844 31.3593ZM5.31844 31.3593C5.31841 31.3593 5.31847 31.3593 5.31844 31.3593ZM0.817164 7.28419C0.695729 6.44823 0.747933 5.59769 0.968837 4.78531L4.74196 8.55858L4.91692 8.73354L5.09187 8.55858L5.9398 7.71061L8.21162 5.43871L9.05955 4.59074L9.2345 4.41578L9.05955 4.24084L5.28642 0.467547C6.09876 0.246631 6.94927 0.194422 7.78519 0.315862C8.75427 0.456647 9.67573 0.826739 10.473 1.39537C11.2703 1.964 11.9203 2.71475 12.369 3.58518C12.8174 4.45501 13.0518 5.41926 13.0528 6.39785C13.0446 6.91678 12.9672 7.43228 12.8226 7.93072L12.7819 8.07104L12.8852 8.17445L31.8593 27.1813C32.1112 27.4347 32.2526 27.7774 32.2526 28.1349C32.2526 28.492 32.1114 28.8346 31.8597 29.088C31.8595 29.0881 31.8593 29.0883 31.8593 29.0883L29.5885 31.3593C29.3351 31.6112 28.9924 31.7525 28.6351 31.7525C28.2778 31.7525 27.9349 31.6112 27.6815 31.3593L8.67544 12.3844L8.57203 12.2811L8.43169 12.3218C7.93328 12.4664 7.4178 12.5438 6.89891 12.552C5.92035 12.551 4.95615 12.3166 4.08636 11.8682C3.21596 11.4194 2.46524 10.7694 1.89663 9.9721C1.32802 9.17481 0.957942 8.25331 0.817164 7.28419ZM23.0745 6.57466L23.1469 6.5022V6.39972V3.35275L29.2502 0.30102L32.1976 3.24869L29.1461 9.35216H26.0992H25.9967L25.9243 9.42464L22.6275 12.7215L19.7777 9.87157L23.0745 6.57466Z" stroke="url(#paint0_linear_2_622)"/>
</g>
<defs>
<linearGradient id="paint0_linear_2_622" x1="16.5004" y1="0.0108772" x2="16.5004" y2="31.9936" gradientUnits="userSpaceOnUse">
<stop stop-color="#45F175"/>
<stop offset="1" stop-color="#00C3CE"/>
</linearGradient>
<clipPath id="clip0_2_622">
<rect width="32" height="32" fill="white" transform="translate(0.5)"/>
</clipPath>
</defs>
</svg>
