<svg width="35" height="32" viewBox="0 0 35 32" fill="none" xmlns="http://www.w3.org/2000/svg">
<g clip-path="url(#clip0_2_629)">
<path d="M19.6669 6.24939C19.7073 9.58725 17.0341 12.3259 13.6963 12.3662C10.3584 12.4066 7.61981 9.73347 7.57943 6.39561C7.53905 3.05776 10.2122 0.31915 13.55 0.278772C16.8879 0.238393 19.6265 2.91153 19.6669 6.24939Z" fill="white" fill-opacity="0.04" stroke="url(#paint0_linear_2_629)"/>
<path d="M15.53 25.0337L15.1046 25.8606L15.1042 25.8611C14.8593 26.3285 14.7724 26.8628 14.8565 27.3837C14.9163 27.7544 15.0604 28.1041 15.2752 28.4072L1.71648 28.5711C1.49428 28.5738 1.28011 28.4881 1.1211 28.3329C0.962074 28.1777 0.871228 27.9657 0.868541 27.7434L0.771851 19.7505C2.28732 17.9792 4.17134 16.5598 6.29254 15.5917C8.43673 14.613 10.7705 14.1196 13.1273 14.1466H13.1289H13.1305C13.8077 14.1436 14.4844 14.1757 15.1582 14.2427C14.9417 14.562 14.8024 14.9291 14.7534 15.3152C14.6885 15.8294 14.7872 16.3509 15.0356 16.8055C15.0357 16.8058 15.0359 16.8061 15.036 16.8064L15.4735 17.6233L14.5765 17.9068L14.5761 17.907C14.0746 18.0664 13.6377 18.3832 13.33 18.8102C13.0223 19.2371 12.8601 19.7518 12.8675 20.2781L12.8932 22.4095C12.886 22.9376 13.0509 23.4538 13.3632 23.88C13.676 24.307 14.1195 24.6202 14.6265 24.772L14.6283 24.7726L15.53 25.0337Z" fill="white" fill-opacity="0.04" stroke="url(#paint1_linear_2_629)"/>
<path d="M31.9083 20.1963L31.9399 20.3037L32.0474 20.3346L34.1107 20.9264C34.137 20.9446 34.159 20.9683 34.1748 20.9961C34.194 21.0298 34.2037 21.0679 34.2029 21.1065L34.2028 21.1099V21.1134L34.2288 23.2622C34.2262 23.3015 34.2123 23.3392 34.1885 23.3708C34.1641 23.4032 34.1305 23.4276 34.0921 23.4408C34.0917 23.4409 34.0913 23.441 34.0909 23.4412L32.0192 24.1004L31.9145 24.1338L31.8849 24.2395C31.7489 24.726 31.5611 25.1965 31.3249 25.6432L31.2738 25.74L31.3264 25.836L32.3912 27.7807C32.4105 27.8161 32.4182 27.8568 32.4133 27.8968C32.4085 27.9359 32.3917 27.9727 32.3652 28.002L30.8677 29.5256C30.839 29.553 30.8025 29.5709 30.7632 29.5768C30.7233 29.5826 30.6826 29.5759 30.6467 29.5574L30.6464 29.5572L28.666 28.5399L28.5683 28.4897L28.4727 28.5438C28.0337 28.7926 27.5681 28.9915 27.0848 29.1369L26.9777 29.169L26.9474 29.2768L26.3498 31.4147C26.3376 31.4511 26.3146 31.4831 26.284 31.5062C26.2532 31.5297 26.2162 31.5434 26.1776 31.5454L24.0467 31.5712C24.0064 31.5716 23.967 31.5593 23.934 31.5361C23.9019 31.5134 23.8775 31.4816 23.8641 31.4447L23.2148 29.322L23.182 29.2147L23.0738 29.1853C22.5804 29.0507 22.103 28.863 21.6498 28.6254L21.5531 28.5747L21.4574 28.6275L19.5235 29.692C19.5233 29.692 19.5233 29.692 19.5233 29.692C19.4879 29.7113 19.4474 29.719 19.4075 29.7141C19.3678 29.7091 19.3306 29.692 19.3012 29.665C19.3009 29.6648 19.3007 29.6645 19.3004 29.6642L17.7327 28.175L17.7319 28.1743C17.7031 28.1473 17.684 28.1115 17.6772 28.0726C17.6706 28.0337 17.6768 27.9936 17.6948 27.9584L17.6952 27.9578L18.7125 25.967L18.7625 25.869L18.7079 25.7734C18.4502 25.3229 18.2406 24.8464 18.0826 24.3519L18.0497 24.249L17.9458 24.2187L15.8558 23.6088L15.8544 23.6083L15.8529 23.6079C15.8169 23.5979 15.7849 23.5763 15.7622 23.5465C15.7394 23.5167 15.7271 23.4802 15.7271 23.4428V23.4416V23.4403L15.7013 21.306L15.7012 21.3048V21.3035C15.7004 21.2661 15.7118 21.2294 15.7338 21.199C15.7559 21.1686 15.7872 21.1462 15.8231 21.1354L15.8245 21.135L15.826 21.1346L17.9005 20.4742L18.0011 20.4422L18.0329 20.3415C18.1927 19.8341 18.4077 19.3457 18.6738 18.8851L18.7319 18.7843L18.6748 18.6832L17.6114 16.8024C17.5929 16.7679 17.586 16.7285 17.5917 16.6897C17.5973 16.6507 17.6157 16.6144 17.6437 16.5867L17.6449 16.5856L19.156 15.069C19.1849 15.0414 19.2215 15.0234 19.2609 15.0176C19.3004 15.0117 19.3407 15.0182 19.3762 15.0363L21.2717 16.0538L21.3713 16.1072L21.4693 16.0508C21.9306 15.7848 22.4204 15.5717 22.9296 15.4155L23.0349 15.3833L23.0653 15.2772L23.6639 13.1907C23.6761 13.154 23.699 13.1219 23.7298 13.0985C23.7606 13.075 23.7978 13.0614 23.8363 13.0594L25.9986 13.0333L26.0002 13.0332C26.0399 13.0325 26.0788 13.044 26.1118 13.0662C26.1434 13.0877 26.1679 13.118 26.1823 13.1534L26.8406 15.222L26.8734 15.3252L26.9774 15.3556C27.4822 15.5031 27.9709 15.7012 28.4359 15.9469L28.5333 15.9984L28.6298 15.9448L30.5385 14.8831C30.5729 14.8668 30.6115 14.8611 30.6491 14.8668C30.6877 14.8725 30.7236 14.8898 30.7519 14.9165L32.2786 16.4169L32.2824 16.4205L32.2862 16.4241C32.3134 16.4482 32.3317 16.4809 32.338 16.5167C32.3443 16.5526 32.3382 16.5895 32.3209 16.6215L32.3199 16.623L32.3192 16.6246L31.3015 18.5738L31.2502 18.6718L31.3047 18.7681C31.5599 19.2195 31.7625 19.6987 31.9083 20.1963ZM23.0068 25.3774C23.6185 25.7732 24.3339 25.9785 25.0623 25.9675C26.0365 25.9529 26.9653 25.5525 27.6449 24.8542C28.3244 24.1559 28.6994 23.2166 28.6877 22.2422C28.6788 21.5137 28.454 20.8043 28.0418 20.2036C27.6295 19.6029 27.0483 19.1381 26.3717 18.868C25.6951 18.5979 24.9536 18.5346 24.2409 18.6862C23.5283 18.8378 22.8767 19.1974 22.3686 19.7194C21.8605 20.2416 21.5187 20.9027 21.3866 21.6192C21.2544 22.3355 21.3378 23.0752 21.6264 23.7442C21.9148 24.4132 22.3952 24.9816 23.0068 25.3774Z" fill="white" fill-opacity="0.04" stroke="url(#paint2_linear_2_629)"/>
</g>
<defs>
<linearGradient id="paint0_linear_2_629" x1="13.6232" y1="0.185807" x2="13.6232" y2="12.4592" gradientUnits="userSpaceOnUse">
<stop stop-color="#45F175"/>
<stop offset="1" stop-color="#00C3CE"/>
</linearGradient>
<linearGradient id="paint1_linear_2_629" x1="8.15093" y1="14.0351" x2="8.15093" y2="28.6816" gradientUnits="userSpaceOnUse">
<stop stop-color="#45F175"/>
<stop offset="1" stop-color="#00C3CE"/>
</linearGradient>
<linearGradient id="paint2_linear_2_629" x1="24.965" y1="12.8913" x2="24.965" y2="31.7131" gradientUnits="userSpaceOnUse">
<stop stop-color="#45F175"/>
<stop offset="1" stop-color="#00C3CE"/>
</linearGradient>
<clipPath id="clip0_2_629">
<rect width="34.0339" height="32" fill="white" transform="translate(0.5)"/>
</clipPath>
</defs>
</svg>
