<svg width="32" height="33" viewBox="0 0 32 33" fill="none" xmlns="http://www.w3.org/2000/svg">
<g clip-path="url(#clip0_2_638)">
<path d="M12.3928 0.830445L12.393 0.830421C13.2896 0.710433 14.425 0.710972 15.8114 0.712123L15.9711 0.712254C17.3559 0.713404 18.4929 0.714753 19.3893 0.83623L19.3894 0.836254C20.3321 0.963142 21.1539 1.23919 21.8092 1.89702L21.8094 1.89733C22.4662 2.55372 22.7409 3.37593 22.8662 4.31883V4.3193C22.9527 4.9578 22.9763 6.50766 22.9814 7.85807L22.982 8.04996L23.1739 8.05639C26.2823 8.16044 28.0733 8.52692 29.3069 9.76398L29.307 9.76413C30.1634 10.6213 30.6023 11.7468 30.8231 13.3985C31.0446 15.056 31.0432 17.2132 31.0408 20.1157C31.0385 23.0184 31.0362 25.1756 30.8119 26.8327C30.5885 28.4841 30.1478 29.6088 29.2899 30.4646L29.2897 30.4647C28.4326 31.3212 27.3071 31.76 25.6553 31.9807C23.9979 32.2023 21.8408 32.2008 18.9381 32.1985L12.7921 32.1934C9.88946 32.191 7.7323 32.1888 6.07523 31.9645C4.42388 31.741 3.29906 31.3003 2.44335 30.4424L2.44323 30.4423C1.58678 29.5852 1.14795 28.4596 0.927195 26.8078C0.705677 25.1505 0.707044 22.9933 0.709454 20.0906C0.711864 17.1879 0.714079 15.0308 0.938349 13.3737C1.16184 11.7224 1.60254 10.5976 2.46041 9.74184L2.46056 9.74169C3.69617 8.50666 5.48785 8.14316 8.59651 8.04274L8.7882 8.03655L8.78924 7.84475C8.79654 6.49633 8.82427 4.94594 8.91028 4.30565C9.03717 3.36459 9.3132 2.54271 9.9712 1.88581C10.6276 1.23048 11.4499 0.95577 12.3928 0.830445ZM20.8747 8.01771L21.0761 8.01891L21.075 7.81753C21.0684 6.52309 21.0485 5.10711 20.9777 4.57041L20.9776 4.56964C20.8784 3.8394 20.7038 3.48611 20.4612 3.24306C20.2185 2.99997 19.8654 2.82488 19.1339 2.7245L19.1331 2.72441C18.3765 2.6233 17.3652 2.6198 15.8897 2.61858C14.4141 2.61735 13.4027 2.61915 12.6441 2.7206C11.9139 2.81818 11.5601 2.99265 11.3168 3.23732C11.074 3.47985 10.8989 3.8312 10.7985 4.56119L10.7984 4.56203C10.7267 5.10014 10.7029 6.51414 10.6957 7.80914L10.6946 8.01028L10.8957 8.00943C11.4959 8.00685 12.136 8.00738 12.8122 8.00794L18.9581 8.01304C19.6358 8.01361 20.2745 8.01414 20.8747 8.01771ZM16.8367 13.0024C16.5835 12.7487 16.2398 12.606 15.8813 12.6057C15.523 12.6054 15.1791 12.7475 14.9253 13.0008C14.7048 13.221 14.5681 13.5096 14.536 13.8168C12.863 14.2903 11.4543 15.6472 11.4528 17.5382C11.4508 19.9219 13.6746 21.453 15.874 21.4547C17.0582 21.4557 17.5949 22.2121 17.5945 22.6659C17.5941 23.1196 17.0564 23.8738 15.872 23.8727C14.6876 23.8718 14.1512 23.1168 14.1516 22.6631C14.1519 22.3046 14.0098 21.9607 13.7565 21.7071C13.5033 21.4534 13.1596 21.3108 12.8012 21.3105C12.4427 21.3101 12.0988 21.4523 11.8452 21.7055C11.5915 21.9587 11.4488 22.3024 11.4485 22.6609C11.4469 24.5519 12.8534 25.9111 14.5255 26.3875C14.5571 26.6947 14.6934 26.9835 14.9135 27.2041C15.1669 27.4577 15.5105 27.6004 15.8689 27.6007C16.2274 27.6009 16.5713 27.4589 16.8249 27.2057C17.0456 26.9854 17.1822 26.6968 17.2143 26.3896C18.8871 25.9148 20.2959 24.5593 20.2975 22.6682C20.2995 20.2845 18.0757 18.7535 15.8763 18.7517C14.6922 18.7508 14.1555 17.9943 14.1559 17.5405C14.1563 17.0868 14.6939 16.3327 15.8783 16.3336C17.0627 16.3346 17.5991 17.0897 17.5987 17.5432C17.5985 17.9018 17.7405 18.2457 17.9937 18.4993C18.247 18.753 18.5907 18.8956 18.9491 18.896C19.3076 18.8963 19.6515 18.7542 19.9051 18.5009C20.1589 18.2476 20.3015 17.904 20.3017 17.5455C20.3033 15.6545 18.8969 14.2953 17.2247 13.819C17.1931 13.5117 17.057 13.2229 16.8367 13.0024Z" fill="white" fill-opacity="0.04" stroke="url(#paint0_linear_2_638)"/>
</g>
<defs>
<linearGradient id="paint0_linear_2_638" x1="15.8752" y1="0.470942" x2="15.8752" y2="32.4399" gradientUnits="userSpaceOnUse">
<stop stop-color="#45F175"/>
<stop offset="1" stop-color="#00C3CE"/>
</linearGradient>
<clipPath id="clip0_2_638">
<rect width="30.805" height="32" fill="white" transform="translate(0.5 0.5)"/>
</clipPath>
</defs>
</svg>
