<svg width="19" height="18" viewBox="0 0 19 18" fill="none" xmlns="http://www.w3.org/2000/svg">
<path d="M8.52507 16.6373C8.46638 16.972 8.27103 17.1894 7.9142 17.1894C7.55739 17.1894 7.33999 16.972 7.28129 16.6421C7.27062 16.5828 7.26008 16.5243 7.2497 16.4665C6.48173 12.1957 6.47263 12.1451 1.87235 11.2159C1.5204 11.1524 1.30298 10.9398 1.30298 10.583C1.30298 10.2311 1.52523 10.0088 1.87719 9.95503C6.38255 9.09556 6.40614 8.9758 7.19813 4.95496C7.22491 4.81902 7.25256 4.67862 7.28129 4.53359C7.33999 4.19886 7.55739 3.98145 7.9142 3.98145C8.27103 3.98145 8.46638 4.19886 8.52507 4.53843C8.55291 4.67564 8.57976 4.80864 8.60579 4.9376C9.41286 8.93586 9.43442 9.04264 13.9562 9.95503C14.291 10.0137 14.5254 10.2311 14.5254 10.583C14.5254 10.9398 14.291 11.1524 13.9416 11.2159C9.33724 12.0772 9.3205 12.1712 8.54481 16.5265L8.52507 16.6373Z" fill="url(#paint0_linear_2_587)" fill-opacity="0.96"/>
<path d="M14.8178 6.88686C14.7897 7.04759 14.6959 7.15196 14.5245 7.15196C14.3532 7.15196 14.2488 7.04759 14.2207 6.8892C14.2156 6.8607 14.2104 6.83259 14.2055 6.80485C13.8368 4.7544 13.8324 4.73008 11.6238 4.28394C11.4547 4.25346 11.3503 4.1514 11.3503 3.98009C11.3503 3.81111 11.4571 3.7044 11.626 3.67856C13.7892 3.26593 13.8005 3.20843 14.1807 1.27795C14.1936 1.21269 14.2068 1.14528 14.2207 1.07564C14.2488 0.914932 14.3532 0.810547 14.5245 0.810547C14.6959 0.810547 14.7897 0.914932 14.8178 1.07797C14.8312 1.14384 14.844 1.2077 14.8566 1.26961C15.2441 3.18926 15.2544 3.24053 17.4254 3.67856C17.5861 3.70673 17.6988 3.81111 17.6988 3.98009C17.6988 4.1514 17.5861 4.25346 17.4184 4.28394C15.2077 4.6975 15.1997 4.74261 14.8273 6.83365L14.8178 6.88686Z" fill="url(#paint1_linear_2_587)" fill-opacity="0.96"/>
<defs>
<linearGradient id="paint0_linear_2_587" x1="7.91421" y1="3.98145" x2="7.91421" y2="17.1894" gradientUnits="userSpaceOnUse">
<stop stop-color="#45F175"/>
<stop offset="1" stop-color="#00C3CE"/>
</linearGradient>
<linearGradient id="paint1_linear_2_587" x1="14.5245" y1="0.810547" x2="14.5245" y2="7.15196" gradientUnits="userSpaceOnUse">
<stop stop-color="#45F175"/>
<stop offset="1" stop-color="#00C3CE"/>
</linearGradient>
</defs>
</svg>
