<svg width="18" height="18" viewBox="0 0 18 18" fill="none" xmlns="http://www.w3.org/2000/svg">
<path d="M6.517 11.5793L9 10.0732L11.483 11.5793L10.823 8.75425L13.019 6.87025L10.133 6.61425L9 3.96425L7.867 6.61425L4.981 6.87025L7.177 8.75425L6.517 11.5793ZM0 17.9832V2.52225C0 2.06158 0.154333 1.67725 0.463 1.36925C0.771667 1.06125 1.15567 0.906917 1.615 0.90625H16.385C16.845 0.90625 17.229 1.06058 17.537 1.36925C17.845 1.67792 17.9993 2.06225 18 2.52225V13.2913C18 13.7513 17.8457 14.1356 17.537 14.4443C17.2283 14.7529 16.8443 14.9069 16.385 14.9062H3.077L0 17.9832ZM2.65 13.9062H16.385C16.5383 13.9062 16.6793 13.8422 16.808 13.7142C16.9367 13.5862 17.0007 13.4453 17 13.2913V2.52125C17 2.36792 16.936 2.22692 16.808 2.09825C16.68 1.96958 16.539 1.90558 16.385 1.90625H1.615C1.46167 1.90625 1.32067 1.97025 1.192 2.09825C1.06333 2.22625 0.999333 2.36725 1 2.52125V15.5513L2.65 13.9062Z" fill="white"/>
</svg>
