<svg width="24" height="25" viewBox="0 0 24 25" fill="none" xmlns="http://www.w3.org/2000/svg">
<path d="M23.25 12.9062C23.2508 12.0449 23.0397 11.1967 22.6352 10.4362C22.2308 9.67577 21.6455 9.0265 20.9309 8.54567C20.2163 8.06483 19.3944 7.76719 18.5376 7.67899C17.6808 7.59079 16.8155 7.71474 16.0179 8.03992C15.2204 8.36509 14.5151 8.8815 13.9642 9.54361C13.4133 10.2057 13.0338 10.9932 12.8591 11.8366C12.6844 12.68 12.7199 13.5534 12.9625 14.3799C13.205 15.2063 13.6472 15.9604 14.25 16.5756V21.9062C14.2499 22.0342 14.2825 22.16 14.3448 22.2717C14.407 22.3835 14.4968 22.4774 14.6056 22.5447C14.7144 22.612 14.8386 22.6503 14.9663 22.656C15.0941 22.6618 15.2212 22.6347 15.3356 22.5775L18 21.2444L20.6644 22.5775C20.7788 22.6347 20.9059 22.6618 21.0337 22.656C21.1614 22.6503 21.2856 22.612 21.3944 22.5447C21.5032 22.4774 21.593 22.3835 21.6552 22.2717C21.7175 22.16 21.7501 22.0342 21.75 21.9062V16.5756C22.7119 15.5966 23.2506 14.2788 23.25 12.9062ZM18 9.15625C18.7417 9.15625 19.4667 9.37618 20.0834 9.78824C20.7001 10.2003 21.1807 10.786 21.4646 11.4712C21.7484 12.1564 21.8226 12.9104 21.6779 13.6378C21.5333 14.3653 21.1761 15.0335 20.6517 15.5579C20.1272 16.0823 19.459 16.4395 18.7316 16.5842C18.0042 16.7289 17.2502 16.6546 16.5649 16.3708C15.8797 16.087 15.294 15.6063 14.882 14.9896C14.4699 14.373 14.25 13.6479 14.25 12.9062C14.25 11.9117 14.6451 10.9579 15.3484 10.2546C16.0516 9.55134 17.0054 9.15625 18 9.15625ZM18.3356 19.735C18.2314 19.6829 18.1165 19.6557 18 19.6557C17.8835 19.6557 17.7686 19.6829 17.6644 19.735L15.75 20.6931V17.6491C16.4531 17.983 17.2217 18.1562 18 18.1562C18.7783 18.1562 19.5469 17.983 20.25 17.6491V20.6931L18.3356 19.735ZM12.75 18.9062C12.75 19.1052 12.671 19.2959 12.5303 19.4366C12.3897 19.5772 12.1989 19.6562 12 19.6562H3.75C3.35218 19.6562 2.97064 19.4982 2.68934 19.2169C2.40804 18.9356 2.25 18.5541 2.25 18.1562V6.15625C2.25 5.75843 2.40804 5.37689 2.68934 5.09559C2.97064 4.81429 3.35218 4.65625 3.75 4.65625H20.25C20.6478 4.65625 21.0294 4.81429 21.3107 5.09559C21.592 5.37689 21.75 5.75843 21.75 6.15625C21.75 6.35516 21.671 6.54593 21.5303 6.68658C21.3897 6.82723 21.1989 6.90625 21 6.90625C20.8011 6.90625 20.6103 6.82723 20.4697 6.68658C20.329 6.54593 20.25 6.35516 20.25 6.15625H3.75V18.1562H12C12.1989 18.1562 12.3897 18.2353 12.5303 18.3759C12.671 18.5166 12.75 18.7073 12.75 18.9062ZM11.25 13.6562C11.25 13.8552 11.171 14.0459 11.0303 14.1866C10.8897 14.3272 10.6989 14.4062 10.5 14.4062H6.75C6.55109 14.4062 6.36032 14.3272 6.21967 14.1866C6.07902 14.0459 6 13.8552 6 13.6562C6 13.4573 6.07902 13.2666 6.21967 13.1259C6.36032 12.9853 6.55109 12.9062 6.75 12.9062H10.5C10.6989 12.9062 10.8897 12.9853 11.0303 13.1259C11.171 13.2666 11.25 13.4573 11.25 13.6562ZM11.25 10.6562C11.25 10.8552 11.171 11.0459 11.0303 11.1866C10.8897 11.3272 10.6989 11.4062 10.5 11.4062H6.75C6.55109 11.4062 6.36032 11.3272 6.21967 11.1866C6.07902 11.0459 6 10.8552 6 10.6562C6 10.4573 6.07902 10.2666 6.21967 10.1259C6.36032 9.98527 6.55109 9.90625 6.75 9.90625H10.5C10.6989 9.90625 10.8897 9.98527 11.0303 10.1259C11.171 10.2666 11.25 10.4573 11.25 10.6562Z" fill="white"/>
</svg>
