<svg width="24" height="25" viewBox="0 0 24 25" fill="none" xmlns="http://www.w3.org/2000/svg">
<path d="M22 8.92625V4.38625C22 2.97625 21.36 2.40625 19.77 2.40625H15.73C14.14 2.40625 13.5 2.97625 13.5 4.38625V8.91625C13.5 10.3363 14.14 10.8962 15.73 10.8962H19.77C21.36 10.9062 22 10.3363 22 8.92625Z" fill="white"/>
<path d="M22 20.1763V16.1362C22 14.5462 21.36 13.9062 19.77 13.9062H15.73C14.14 13.9062 13.5 14.5462 13.5 16.1362V20.1763C13.5 21.7663 14.14 22.4062 15.73 22.4062H19.77C21.36 22.4062 22 21.7663 22 20.1763Z" fill="white"/>
<path d="M10.5 8.92625V4.38625C10.5 2.97625 9.86 2.40625 8.27 2.40625H4.23C2.64 2.40625 2 2.97625 2 4.38625V8.91625C2 10.3363 2.64 10.8962 4.23 10.8962H8.27C9.86 10.9062 10.5 10.3363 10.5 8.92625Z" fill="white"/>
<path d="M10.5 20.1763V16.1362C10.5 14.5462 9.86 13.9062 8.27 13.9062H4.23C2.64 13.9062 2 14.5462 2 16.1362V20.1763C2 21.7663 2.64 22.4062 4.23 22.4062H8.27C9.86 22.4062 10.5 21.7663 10.5 20.1763Z" fill="white"/>
</svg>
