<svg width="24" height="28" viewBox="0 0 24 28" fill="none" xmlns="http://www.w3.org/2000/svg">
<path d="M8.27 25.9981H4.23C2.22 25.9981 1.25 24.9521 1.25 22.7926V5.02188C1.25 2.8624 2.23 1.81641 4.23 1.81641H8.27C10.28 1.81641 11.25 2.8624 11.25 5.02188V22.7926C11.25 24.9521 10.27 25.9981 8.27 25.9981ZM4.23 3.5035C2.96 3.5035 2.75 3.88591 2.75 5.02188V22.7926C2.75 23.9286 2.96 24.311 4.23 24.311H8.27C9.54 24.311 9.75 23.9286 9.75 22.7926V5.02188C9.75 3.88591 9.54 3.5035 8.27 3.5035H4.23Z" fill="white"/>
<path d="M19.77 15.8755H15.73C13.72 15.8755 12.75 14.8295 12.75 12.67V5.02188C12.75 2.8624 13.73 1.81641 15.73 1.81641H19.77C21.78 1.81641 22.75 2.8624 22.75 5.02188V12.67C22.75 14.8295 21.77 15.8755 19.77 15.8755ZM15.73 3.5035C14.46 3.5035 14.25 3.88591 14.25 5.02188V12.67C14.25 13.806 14.46 14.1884 15.73 14.1884H19.77C21.04 14.1884 21.25 13.806 21.25 12.67V5.02188C21.25 3.88591 21.04 3.5035 19.77 3.5035H15.73Z" fill="white"/>
<path d="M19.77 25.998H15.73C13.72 25.998 12.75 24.952 12.75 22.7925V20.768C12.75 18.6085 13.73 17.5625 15.73 17.5625H19.77C21.78 17.5625 22.75 18.6085 22.75 20.768V22.7925C22.75 24.952 21.77 25.998 19.77 25.998ZM15.73 19.2496C14.46 19.2496 14.25 19.632 14.25 20.768V22.7925C14.25 23.9285 14.46 24.3109 15.73 24.3109H19.77C21.04 24.3109 21.25 23.9285 21.25 22.7925V20.768C21.25 19.632 21.04 19.2496 19.77 19.2496H15.73Z" fill="white"/>
</svg>
