<svg width="18" height="19" viewBox="0 0 18 19" fill="none" xmlns="http://www.w3.org/2000/svg">
<path d="M2.931 4.84225L4.206 9.09125M9.813 14.7003L14.064 15.9753M8.683 10.2233L14.442 4.46425M1 3.40625C1 3.60323 1.0388 3.79829 1.11418 3.98028C1.18956 4.16226 1.30005 4.32762 1.43934 4.46691C1.57863 4.6062 1.74399 4.71669 1.92597 4.79207C2.10796 4.86745 2.30302 4.90625 2.5 4.90625C2.69698 4.90625 2.89204 4.86745 3.07403 4.79207C3.25601 4.71669 3.42137 4.6062 3.56066 4.46691C3.69995 4.32762 3.81044 4.16226 3.88582 3.98028C3.9612 3.79829 4 3.60323 4 3.40625C4 3.20927 3.9612 3.01421 3.88582 2.83222C3.81044 2.65024 3.69995 2.48488 3.56066 2.34559C3.42137 2.2063 3.25601 2.09581 3.07403 2.02043C2.89204 1.94505 2.69698 1.90625 2.5 1.90625C2.30302 1.90625 2.10796 1.94505 1.92597 2.02043C1.74399 2.09581 1.57863 2.2063 1.43934 2.34559C1.30005 2.48488 1.18956 2.65024 1.11418 2.83222C1.0388 3.01421 1 3.20927 1 3.40625ZM14 3.40625C14 3.80407 14.158 4.18561 14.4393 4.46691C14.7206 4.74821 15.1022 4.90625 15.5 4.90625C15.8978 4.90625 16.2794 4.74821 16.5607 4.46691C16.842 4.18561 17 3.80407 17 3.40625C17 3.00843 16.842 2.62689 16.5607 2.34559C16.2794 2.06429 15.8978 1.90625 15.5 1.90625C15.1022 1.90625 14.7206 2.06429 14.4393 2.34559C14.158 2.62689 14 3.00843 14 3.40625ZM14 16.4062C14 16.8041 14.158 17.1856 14.4393 17.4669C14.7206 17.7482 15.1022 17.9062 15.5 17.9062C15.8978 17.9062 16.2794 17.7482 16.5607 17.4669C16.842 17.1856 17 16.8041 17 16.4062C17 16.0084 16.842 15.6269 16.5607 15.3456C16.2794 15.0643 15.8978 14.9062 15.5 14.9062C15.1022 14.9062 14.7206 15.0643 14.4393 15.3456C14.158 15.6269 14 16.0084 14 16.4062ZM1 13.4062C1 14.5997 1.47411 15.7443 2.31802 16.5882C3.16193 17.4321 4.30653 17.9062 5.5 17.9062C6.69347 17.9062 7.83807 17.4321 8.68198 16.5882C9.52589 15.7443 10 14.5997 10 13.4062C10 12.2128 9.52589 11.0682 8.68198 10.2243C7.83807 9.38036 6.69347 8.90625 5.5 8.90625C4.30653 8.90625 3.16193 9.38036 2.31802 10.2243C1.47411 11.0682 1 12.2128 1 13.4062Z" stroke="white" stroke-width="2" stroke-linecap="round" stroke-linejoin="round"/>
</svg>
