<svg width="28" height="28" viewBox="0 0 28 28" fill="none" xmlns="http://www.w3.org/2000/svg">
<path d="M1.13296 8.86703H26.867V7.77703C26.867 5.36353 25.637 4.14453 23.1875 4.14453H4.81246C2.36346 4.14453 1.13246 5.36353 1.13246 7.77753L1.13296 8.86703ZM1.13296 20.2345C1.13296 22.6485 2.36296 23.8555 4.81246 23.8555H23.1875C25.6365 23.8555 26.8675 22.6485 26.8675 20.2345V11.5275H1.13196L1.13296 20.2345ZM5.04696 17.375V15.207C5.04696 14.551 5.50396 14.082 6.19546 14.082H9.06646C9.75796 14.082 10.215 14.551 10.215 15.207V17.375C10.215 18.043 9.75796 18.5 9.06646 18.5H6.19496C5.50346 18.5 5.04696 18.043 5.04696 17.375Z" fill="white"/>
</svg>
