<svg width="21" height="22" viewBox="0 0 21 22" fill="none" xmlns="http://www.w3.org/2000/svg">
<path d="M16 13.9062H4L0 17.9062V1.90625C0 1.64103 0.105357 1.38668 0.292893 1.19914C0.48043 1.01161 0.734784 0.90625 1 0.90625H16C16.2652 0.90625 16.5196 1.01161 16.7071 1.19914C16.8946 1.38668 17 1.64103 17 1.90625V12.9062C17 13.1715 16.8946 13.4258 16.7071 13.6134C16.5196 13.8009 16.2652 13.9062 16 13.9062ZM21 7.90625V21.9062L17 17.9062H6C5.73478 17.9062 5.48043 17.8009 5.29289 17.6134C5.10536 17.4258 5 17.1715 5 16.9062V15.9062H19V6.90625H20C20.2652 6.90625 20.5196 7.01161 20.7071 7.19914C20.8946 7.38668 21 7.64103 21 7.90625ZM6.19 2.90625C5.32 2.90625 4.62 3.10625 4.08 3.49625C3.56 3.90625 3.3 4.47625 3.31 5.26625L3.32 5.29625H5.25C5.26 4.99625 5.35 4.76625 5.53 4.60625C5.71517 4.45269 5.9495 4.37104 6.19 4.37625C6.5 4.37625 6.76 4.47625 6.94 4.65625C7.12 4.84625 7.2 5.10625 7.2 5.40625C7.2 5.72625 7.13 5.99625 6.97 6.22625C6.83 6.45625 6.62 6.65625 6.36 6.81625C5.85 7.15625 5.5 7.45625 5.31 7.72625C5.11 7.98625 5 8.40625 5 8.90625H7C7 8.59625 7.04 8.34625 7.13 8.16625C7.22 7.98625 7.39 7.80625 7.64 7.64625C8.09 7.40625 8.46 7.11625 8.75 6.71625C9.04 6.31625 9.19 5.90625 9.19 5.40625C9.19 4.64625 8.92 4.03625 8.38 3.58625C7.85 3.13625 7.12 2.90625 6.19 2.90625ZM5 9.90625V11.9062H7V9.90625H5ZM11 11.9062H13V9.90625H11V11.9062ZM11 2.90625V8.90625H13V2.90625H11Z" fill="white"/>
</svg>
