<svg width="20" height="20" viewBox="0 0 20 20" fill="none" xmlns="http://www.w3.org/2000/svg">
<path fill-rule="evenodd" clip-rule="evenodd" d="M9.29303 2.29279C9.48056 2.10532 9.73487 2 10 2C10.2652 2 10.5195 2.10532 10.707 2.29279L17.707 9.29279C17.8468 9.43264 17.942 9.6108 17.9806 9.80476C18.0192 9.99871 17.9994 10.1997 17.9237 10.3824C17.848 10.5651 17.7199 10.7213 17.5555 10.8312C17.3911 10.9411 17.1978 10.9997 17 10.9998H16V16.9998C16 17.265 15.8947 17.5194 15.7071 17.7069C15.5196 17.8944 15.2652 17.9998 15 17.9998H13C12.7348 17.9998 12.4805 17.8944 12.2929 17.7069C12.1054 17.5194 12 17.265 12 16.9998V13.9998C12 13.7346 11.8947 13.4802 11.7071 13.2927C11.5196 13.1051 11.2652 12.9998 11 12.9998H9.00003C8.73481 12.9998 8.48046 13.1051 8.29292 13.2927C8.10539 13.4802 8.00003 13.7346 8.00003 13.9998V16.9998C8.00003 17.265 7.89467 17.5194 7.70714 17.7069C7.5196 17.8944 7.26525 17.9998 7.00003 17.9998H5.00003C4.73481 17.9998 4.48046 17.8944 4.29292 17.7069C4.10539 17.5194 4.00003 17.265 4.00003 16.9998V10.9998H3.00003C2.80228 10.9997 2.60898 10.9411 2.44457 10.8312C2.28016 10.7213 2.15202 10.5651 2.07635 10.3824C2.00068 10.1997 1.98088 9.99871 2.01945 9.80476C2.05802 9.6108 2.15322 9.43264 2.29303 9.29279L9.29303 2.29279Z" fill="white"/>
</svg>
