<svg width="24" height="25" viewBox="0 0 24 25" fill="none" xmlns="http://www.w3.org/2000/svg">
<path d="M11.9996 18.3055C11.3962 18.3056 10.815 18.0784 10.3715 17.6693C9.92811 17.2601 9.65508 16.6989 9.60681 16.0975C8.00623 15.5309 6.65727 14.4171 5.79804 12.9527C4.93881 11.4883 4.62456 9.76738 4.91076 8.09379C5.19696 6.4202 6.06522 4.90152 7.36226 3.80585C8.6593 2.71017 10.3017 2.10794 11.9996 2.10547C13.8055 2.10521 15.5455 2.78357 16.8747 4.00606C18.2039 5.22854 19.0251 6.90588 19.1756 8.70547C19.1806 8.78353 19.1693 8.86178 19.1425 8.93524C19.1156 9.00871 19.0738 9.07578 19.0196 9.13221C18.9655 9.18864 18.9001 9.23318 18.8278 9.26301C18.7555 9.29283 18.6778 9.30729 18.5996 9.30547C18.4389 9.30144 18.2854 9.2378 18.1689 9.12691C18.0525 9.01603 17.9815 8.86582 17.9696 8.70547C17.8627 7.64447 17.475 6.63113 16.8464 5.76976C16.2178 4.90839 15.3709 4.23012 14.393 3.80477C13.4152 3.37943 12.3416 3.22238 11.2829 3.3498C10.2242 3.47722 9.21852 3.8845 8.3695 4.52971C7.52047 5.17492 6.85874 6.03474 6.45243 7.02067C6.04612 8.0066 5.90991 9.08299 6.05782 10.1391C6.20573 11.1951 6.63242 12.1927 7.29396 13.029C7.9555 13.8654 8.82799 14.5103 9.82161 14.8975C10.0024 14.5068 10.2849 14.172 10.6396 13.928C10.9943 13.6841 11.408 13.54 11.8375 13.511C12.267 13.4819 12.6964 13.5688 13.0807 13.7627C13.4651 13.9566 13.7901 14.2503 14.022 14.6131C14.2538 14.9758 14.3838 15.3942 14.3983 15.8244C14.4128 16.2546 14.3114 16.6808 14.1046 17.0584C13.8978 17.4359 13.5933 17.7509 13.223 17.9703C12.8526 18.1897 12.4301 18.3055 11.9996 18.3055ZM6.01041 15.3055H6.11961C6.58761 15.7627 7.10721 16.1659 7.67001 16.5055H6.01041C5.33721 16.5055 4.79961 17.0419 4.79961 17.7055C4.79961 19.2763 5.54601 20.4463 6.80721 21.2491C8.09121 22.0687 9.91761 22.5055 11.9996 22.5055C14.0816 22.5055 15.908 22.0687 17.192 21.2491C18.452 20.4451 19.1996 19.2775 19.1996 17.7055C19.1996 17.3872 19.0732 17.082 18.8481 16.8569C18.6231 16.6319 18.3179 16.5055 17.9996 16.5055H15.5504C15.6175 16.1083 15.6175 15.7027 15.5504 15.3055H17.9996C18.6361 15.3055 19.2466 15.5583 19.6967 16.0084C20.1468 16.4585 20.3996 17.0689 20.3996 17.7055C20.3996 19.7347 19.4 21.2647 17.8376 22.2619C16.2992 23.2423 14.2256 23.7055 11.9996 23.7055C9.77361 23.7055 7.70001 23.2423 6.16161 22.2619C4.59921 21.2659 3.59961 19.7335 3.59961 17.7055C3.59961 16.3699 4.68321 15.3055 6.01041 15.3055ZM16.7996 9.30547C16.7999 10.1174 16.5941 10.9162 16.2017 11.627C15.8092 12.3378 15.2429 12.9375 14.5556 13.3699C14.2353 13.0468 13.8566 12.7875 13.4396 12.6055C14.1976 12.2746 14.8186 11.6929 15.1982 10.9581C15.5777 10.2232 15.6926 9.38012 15.5237 8.5705C15.3547 7.76088 14.9121 7.03413 14.2703 6.51246C13.6285 5.99079 12.8267 5.70601 11.9996 5.70601C11.1725 5.70601 10.3707 5.99079 9.72891 6.51246C9.08712 7.03413 8.64452 7.76088 8.47555 8.5705C8.30657 9.38012 8.42152 10.2232 8.80106 10.9581C9.1806 11.6929 9.80159 12.2746 10.5596 12.6055C10.1396 12.7891 9.76161 13.0495 9.44361 13.3699C8.53211 12.7967 7.83982 11.9336 7.47801 10.9195C7.29343 10.4014 7.19926 9.85545 7.19961 9.30547C7.19961 8.03243 7.70532 6.81153 8.6055 5.91136C9.50567 5.01118 10.7266 4.50547 11.9996 4.50547C13.2726 4.50547 14.4935 5.01118 15.3937 5.91136C16.2939 6.81153 16.7996 8.03243 16.7996 9.30547Z" fill="white"/>
</svg>
