<svg width="40" height="41" viewBox="0 0 40 41" fill="none" xmlns="http://www.w3.org/2000/svg">
<mask id="mask0_1056_3053" style="mask-type:luminance" maskUnits="userSpaceOnUse" x="0" y="0" width="40" height="41">
<path d="M0 0.199219H40V40.1992H0V0.199219Z" fill="white"/>
</mask>
<g mask="url(#mask0_1056_3053)">
<mask id="mask1_1056_3053" style="mask-type:luminance" maskUnits="userSpaceOnUse" x="0" y="0" width="40" height="41">
<path d="M20 0.199219C8.95415 0.199219 0 9.15337 0 20.1992C0 31.2448 8.95415 40.1992 20 40.1992C31.0456 40.1992 40 31.2448 40 20.1992C40 9.15337 31.0456 0.199219 20 0.199219Z" fill="white"/>
</mask>
<g mask="url(#mask1_1056_3053)">
<path d="M0 0.199219H40V40.1992H0V0.199219Z" fill="#04110D"/>
</g>
</g>
<mask id="mask2_1056_3053" style="mask-type:luminance" maskUnits="userSpaceOnUse" x="9" y="6" width="22" height="24">
<path d="M9.09375 6.21875H30.9222V29.1135H9.09375V6.21875Z" fill="white"/>
</mask>
<g mask="url(#mask2_1056_3053)">
<path fill-rule="evenodd" clip-rule="evenodd" d="M26.0538 29.1177H13.9467C11.2805 29.1177 9.11719 26.9439 9.11719 24.2817V16.396C9.11719 13.717 11.2805 11.5432 13.9467 11.5432H19.4803L19.4972 9.68977C18.7761 9.47072 18.2393 8.79677 18.2393 7.98797C18.2393 7.01076 19.0442 6.21875 20.0171 6.21875C20.9896 6.21875 21.7945 7.01076 21.7945 7.98797C21.7945 8.79677 21.241 9.4875 20.5032 9.70655L20.4865 11.5432H26.0538C28.7032 11.5432 30.8662 13.717 30.8662 16.396V24.2984C30.8662 26.9607 28.7032 29.1177 26.0538 29.1177ZM15.4557 21.4678C14.0305 21.4678 12.907 20.339 12.907 18.9234C12.907 17.4912 14.0305 16.3624 15.4557 16.3624C16.8812 16.3624 17.9879 17.4912 17.9879 18.9234C17.9879 20.339 16.8812 21.4678 15.4557 21.4678ZM15.4557 17.3732C14.584 17.3732 13.913 18.0474 13.913 18.9234C13.913 19.7828 14.584 20.4567 15.4557 20.4567C16.311 20.4567 16.9984 19.7828 16.9984 18.9234C16.9984 18.0474 16.311 17.3732 15.4557 17.3732ZM24.5614 21.3668C23.1359 21.3668 21.9958 20.2209 21.9958 18.8056C21.9958 17.3903 23.1359 16.2443 24.5614 16.2443C25.953 16.2443 27.0934 17.3903 27.0934 18.8056C27.0934 20.2209 25.953 21.3668 24.5614 21.3668ZM24.5614 17.2554C23.6894 17.2554 23.0017 17.9629 23.0017 18.8056C23.0017 19.6647 23.6894 20.3725 24.5614 20.3725C25.4164 20.3725 26.0872 19.6647 26.0872 18.8056C26.0872 17.9294 25.3997 17.2554 24.5614 17.2554ZM19.8158 24.4333C18.8599 24.4333 18.0213 23.9784 17.5519 23.5739C17.3339 23.3887 17.3172 23.0515 17.5015 22.8663C17.6861 22.6641 17.9879 22.6305 18.2059 22.8325C18.3568 22.9673 19.8158 24.13 21.2076 22.8496C21.4089 22.6641 21.7107 22.6641 21.9287 22.8663C22.113 23.0854 22.113 23.3887 21.9117 23.5909C21.2076 24.1975 20.4865 24.4333 19.8158 24.4333Z" fill="#45F175"/>
</g>
<mask id="mask3_1056_3053" style="mask-type:luminance" maskUnits="userSpaceOnUse" x="6" y="16" width="2" height="8">
<path d="M6.271 16.6953H7.80516V23.6785H6.271V16.6953Z" fill="white"/>
</mask>
<g mask="url(#mask3_1056_3053)">
<path fill-rule="evenodd" clip-rule="evenodd" d="M7.75214 23.618H7.62884C6.88818 23.618 6.271 22.7492 6.271 21.674V18.6698C6.271 17.5946 6.88818 16.7109 7.62884 16.7109H7.7728C7.76256 16.8731 7.75214 17.0496 7.75214 17.2264V23.618Z" fill="#45F175"/>
</g>
<mask id="mask4_1056_3053" style="mask-type:luminance" maskUnits="userSpaceOnUse" x="32" y="16" width="2" height="8">
<path d="M32.1807 16.6953H33.7201V23.7626H32.1807V16.6953Z" fill="white"/>
</mask>
<g mask="url(#mask4_1056_3053)">
<path fill-rule="evenodd" clip-rule="evenodd" d="M32.3317 23.6974H32.208V17.2893C32.208 17.0973 32.1978 16.9201 32.1875 16.7578H32.3317C33.094 16.7578 33.7119 17.6288 33.7119 18.7215V21.7484C33.7119 22.8411 33.094 23.6974 32.3317 23.6974Z" fill="#45F175"/>
</g>
</svg>
